<?xml version="1.0" standalone="no"?>
<!DOCTYPE svg PUBLIC "-//W3C//DTD SVG 20010904//EN"
 "http://www.w3.org/TR/2001/REC-SVG-20010904/DTD/svg10.dtd">
<svg version="1.0" xmlns="http://www.w3.org/2000/svg"
 width="512.000000pt" height="512.000000pt" viewBox="0 0 512.000000 512.000000"
 preserveAspectRatio="xMidYMid meet">
<metadata>
Created by potrace 1.14, written by Peter Selinger 2001-2017
</metadata>
<g transform="translate(0.000000,512.000000) scale(0.100000,-0.100000)"
fill="#000000" stroke="none">
<path d="M1450 4675 c-211 -60 -329 -253 -360 -587 -16 -169 4 -410 51 -620
10 -48 19 -92 19 -97 0 -6 -39 -22 -87 -36 -192 -59 -402 -155 -553 -252 -123
-80 -266 -227 -313 -323 -67 -136 -66 -258 4 -399 34 -70 59 -102 138 -180
169 -168 407 -303 706 -401 55 -18 102 -34 103 -36 2 -1 -5 -45 -17 -96 -132
-588 -36 -1048 246 -1181 61 -29 79 -32 178 -35 93 -3 126 1 209 22 118 31
291 112 424 199 103 67 277 204 326 256 17 17 34 31 39 31 5 0 43 -32 85 -71
216 -201 485 -363 700 -421 101 -27 256 -28 327 -3 164 58 278 211 330 445 22
102 31 368 16 514 -7 64 -23 169 -36 233 -13 65 -23 118 -22 119 1 0 50 17
109 37 455 155 774 393 860 641 24 71 24 187 -2 260 -28 81 -100 185 -178 257
-148 135 -398 273 -665 364 -110 38 -136 51 -133 64 19 61 57 311 65 428 31
430 -78 737 -297 845 -60 30 -77 33 -172 36 -82 3 -123 -1 -187 -17 -215 -53
-462 -200 -711 -420 l-94 -83 -21 20 c-278 249 -520 400 -752 469 -104 32
-257 39 -335 18z m295 -226 c172 -53 393 -190 593 -367 l72 -64 -45 -51 c-74
-84 -277 -337 -320 -399 -35 -50 -44 -58 -73 -58 -49 0 -309 -37 -461 -66 -74
-14 -137 -22 -142 -17 -6 7 -36 147 -53 254 -4 19 -10 91 -16 159 -25 339 56
593 202 631 50 13 165 2 243 -22z m1892 10 c113 -55 173 -238 173 -523 -1
-162 -8 -238 -41 -412 l-21 -111 -111 23 c-129 26 -349 60 -455 70 l-73 7 -86
116 c-91 123 -197 254 -272 335 l-45 49 65 61 c195 185 447 341 631 390 82 22
183 20 235 -5z m-1026 -652 c46 -53 219 -265 219 -270 0 -1 -123 -2 -274 -2
-242 0 -273 2 -263 15 75 99 256 310 265 310 4 0 28 -24 53 -53z m350 -493
c32 -6 42 -16 116 -133 92 -144 200 -331 291 -503 l63 -117 -57 -108 c-86
-166 -209 -381 -298 -521 l-81 -127 -105 -6 c-146 -9 -490 -10 -641 -3 l-125
7 -71 106 c-95 143 -214 349 -299 515 l-69 136 65 127 c114 223 355 621 377
624 98 16 744 19 834 3z m-1147 -90 c-56 -88 -163 -273 -202 -349 l-35 -70
-23 52 c-38 85 -116 306 -117 332 -2 21 4 26 38 33 83 19 311 57 342 57 l33 1
-36 -56z m1706 20 c74 -14 143 -27 152 -30 15 -4 13 -17 -22 -118 -38 -109
-96 -261 -107 -279 -3 -4 -40 54 -82 130 -43 76 -103 180 -134 231 -32 51 -57
95 -57 99 0 8 91 -4 250 -33z m-2255 -214 c47 -139 86 -239 147 -378 l41 -93
-46 -107 c-58 -136 -126 -313 -161 -419 -15 -46 -32 -83 -37 -83 -22 0 -273
96 -364 140 -284 136 -475 327 -475 475 0 182 276 398 697 545 76 27 142 48
146 47 5 -2 28 -59 52 -127z m2800 73 c225 -82 420 -191 541 -306 177 -167
180 -294 11 -461 -88 -88 -194 -159 -352 -236 -91 -45 -337 -140 -360 -140 -2
0 -13 30 -26 68 -33 101 -124 329 -174 437 l-44 95 64 149 c35 82 88 217 117
299 l53 149 50 -14 c28 -9 82 -27 120 -40z m-2277 -1168 c33 -55 59 -102 57
-104 -5 -4 -144 15 -292 41 -104 18 -123 24 -123 39 0 19 48 156 107 306 l36
92 77 -137 c42 -75 104 -182 138 -237z m1800 273 c51 -129 113 -300 110 -303
-3 -3 -285 -54 -338 -61 -19 -3 -49 -7 -67 -10 l-32 -5 97 164 c53 90 115 198
137 240 22 42 43 77 46 77 3 0 25 -46 47 -102z m180 -555 c41 -188 46 -243 47
-453 0 -180 -3 -226 -19 -285 -56 -207 -126 -278 -277 -277 -195 2 -450 138
-742 396 l-66 59 35 41 c120 140 324 403 352 452 7 12 41 20 133 30 129 15
398 58 459 73 64 16 68 15 78 -36z m-2257 12 c118 -21 259 -41 441 -60 l56 -6
53 -72 c72 -99 186 -240 279 -346 l79 -89 -62 -54 c-296 -260 -564 -398 -773
-398 -129 0 -202 62 -248 210 -38 120 -51 273 -37 438 12 141 58 402 71 402 4
0 67 -11 141 -25z m1323 -87 c-15 -25 -232 -293 -252 -311 -19 -18 -21 -17
-85 55 -36 40 -98 114 -137 163 l-72 90 268 5 c148 3 273 7 277 8 5 1 5 -4 1
-10z"/>
<path d="M2435 2976 c-210 -66 -333 -260 -304 -476 32 -228 261 -399 487 -362
238 40 401 261 362 493 -27 157 -137 288 -287 340 -65 22 -195 25 -258 5z"/>
</g>
</svg>
